<?xml version="1.0" encoding="UTF-8"?>
<svg id="Layer_2" data-name="Layer 2" xmlns="http://www.w3.org/2000/svg" xmlns:xlink="http://www.w3.org/1999/xlink" viewBox="0 0 299.47 350">
  <defs>
    <style>
      .cls-1 {
        fill: url(#linear-gradient);
        stroke-width: 0px;
      }
    </style>
    <linearGradient id="linear-gradient" x1="66.31" y1="319.49" x2="233.16" y2="30.51" gradientUnits="userSpaceOnUse">
      <stop offset="0" stop-color="#22577a"/>
      <stop offset="1" stop-color="#b1d234"/>
    </linearGradient>
  </defs>
  <g id="Layer_1-2" data-name="Layer 1">
    <path class="cls-1" d="M171.75,8.95c11.94,11.94,11.94,31.3,0,43.24-11.94,11.94-31.3,11.94-43.24,0s-11.94-31.3,0-43.24c11.94-11.94,31.3-11.94,43.24,0ZM128.52,297.81c-11.94,11.94-11.94,31.3,0,43.24,11.94,11.94,31.3,11.94,43.24,0,11.94-11.94,11.94-31.3,0-43.24-11.94-11.94-31.3-11.94-43.24,0ZM208.24,216.64c-8.18-.03-15.61,3.17-21.1,8.38-8.98,8.53-20.74,13.45-33.03,14.33-.34.03-.67.05-1.03.07-.33.02-.66.03-.99.04-.3,0-.62.02-.94.02-.34,0-.68.02-1.02.02h0c-.98,0-1.96-.03-2.94-.09-34.25-1.54-61.55-29.79-61.55-64.42s27.3-62.88,61.55-64.42c.98-.05,1.96-.09,2.94-.09.39,0,.78.02,1.17.03.21,0,.42,0,.62.01,13.09.42,25.71,5.41,35.23,14.44,5.49,5.22,12.92,8.41,21.1,8.38,16.03-.05,29.58-12.9,30.43-28.91.94-17.64-13.09-32.24-30.53-32.24-8.13,0-15.5,3.18-20.97,8.35-9.97,9.44-23.31,14.51-37.04,14.51h0c-13.74,0-27.07-5.09-37.06-14.53-5.88-5.56-13.95-8.8-22.79-8.28-14.77.87-27.03,12.55-28.56,27.26-.3,2.84-.2,5.6.24,8.25,1.46,8.83-.63,17.87-6.33,24.76l-.7.84c-5.81,7.02-14.45,11.34-23.56,11.08-8.96-.26-18.01,3.4-24.36,11-9.36,11.2-9.36,27.87,0,39.07,6.35,7.6,15.39,11.26,24.36,11,9.11-.26,17.75,4.06,23.56,11.08l.7.84c5.71,6.89,7.8,15.94,6.33,24.76-.44,2.65-.53,5.41-.24,8.25,1.54,14.72,13.79,26.4,28.56,27.26,8.84.52,16.92-2.73,22.79-8.28,9.99-9.44,23.32-14.53,37.06-14.53h0c13.74,0,27.07,5.07,37.04,14.51,5.47,5.18,12.84,8.35,20.97,8.35,17.44,0,31.47-14.6,30.53-32.24-.85-16.01-14.4-28.86-30.43-28.91ZM270.24,141.95c-11.43-1.35-21.87,3.09-28.79,10.77-8.54,9.48-20.94,14.57-33.7,14.57h-2.97c-12.49,0-24.3-5.21-33.16-14.01-5.53-5.49-13.16-8.88-21.58-8.85-16.03.05-29.58,12.9-30.43,28.91-.94,17.64,13.09,32.24,30.53,32.24,8.37,0,15.95-3.37,21.46-8.83,8.89-8.8,20.68-14.04,33.19-14.04h2.8c12.8,0,25.29,5.02,33.84,14.54,6.09,6.78,14.92,11.04,24.76,11.04,19.64,0,35.3-17,33.08-37.08-1.68-15.19-13.84-27.46-29.02-29.25ZM222.64,47.93c0,7.49,6.07,13.56,13.56,13.56s13.56-6.07,13.56-13.56-6.07-13.56-13.56-13.56-13.56,6.07-13.56,13.56ZM267.56,101.84c0,8.81,7.14,15.95,15.95,15.95s15.95-7.14,15.95-15.95-7.14-15.95-15.95-15.95-15.95,7.14-15.95,15.95ZM63.27,34.36c-7.49,0-13.56,6.07-13.56,13.56s6.07,13.56,13.56,13.56,13.56-6.07,13.56-13.56-6.07-13.56-13.56-13.56ZM15.95,85.89C7.14,85.89,0,93.03,0,101.84s7.14,15.95,15.95,15.95,15.95-7.14,15.95-15.95-7.14-15.95-15.95-15.95ZM76.83,302.07c0-7.49-6.07-13.56-13.56-13.56s-13.56,6.07-13.56,13.56,6.07,13.56,13.56,13.56,13.56-6.07,13.56-13.56ZM31.91,248.16c0-8.81-7.14-15.95-15.95-15.95S0,239.35,0,248.16s7.14,15.95,15.95,15.95,15.95-7.14,15.95-15.95ZM236.2,315.64c7.49,0,13.56-6.07,13.56-13.56s-6.07-13.56-13.56-13.56-13.56,6.07-13.56,13.56,6.07,13.56,13.56,13.56ZM283.52,264.11c8.81,0,15.95-7.14,15.95-15.95s-7.14-15.95-15.95-15.95-15.95,7.14-15.95,15.95,7.14,15.95,15.95,15.95Z"/>
  </g>
</svg>