<?xml version="1.0" encoding="UTF-8"?>
<svg id="Layer_1" data-name="Layer 1" xmlns="http://www.w3.org/2000/svg" xmlns:xlink="http://www.w3.org/1999/xlink" viewBox="0 0 2000 350">
  <defs>
    <style>
      .cls-1 {
        fill: url(#linear-gradient);
      }

      .cls-1, .cls-2 {
        stroke-width: 0px;
      }

      .cls-2 {
        fill: #212121;
      }
    </style>
    <linearGradient id="linear-gradient" x1="66.31" y1="319.49" x2="233.16" y2="30.51" gradientUnits="userSpaceOnUse">
      <stop offset="0" stop-color="#22577a"/>
      <stop offset="1" stop-color="#b1d234"/>
    </linearGradient>
  </defs>
  <path class="cls-1" d="M171.75,8.95c11.94,11.94,11.94,31.3,0,43.24-11.94,11.94-31.3,11.94-43.24,0s-11.94-31.3,0-43.24c11.94-11.94,31.3-11.94,43.24,0ZM128.52,297.81c-11.94,11.94-11.94,31.3,0,43.24,11.94,11.94,31.3,11.94,43.24,0,11.94-11.94,11.94-31.3,0-43.24-11.94-11.94-31.3-11.94-43.24,0ZM208.24,216.64c-8.18-.03-15.61,3.17-21.1,8.38-8.98,8.53-20.74,13.45-33.03,14.33-.34.03-.67.05-1.03.07-.33.02-.66.03-.99.04-.3,0-.62.02-.94.02-.34,0-.68.02-1.02.02h0c-.98,0-1.96-.03-2.94-.09-34.25-1.54-61.55-29.79-61.55-64.42s27.3-62.88,61.55-64.42c.98-.05,1.96-.09,2.94-.09.39,0,.78.02,1.17.03.21,0,.42,0,.62.01,13.09.42,25.71,5.41,35.23,14.44,5.49,5.22,12.92,8.41,21.1,8.38,16.03-.05,29.58-12.9,30.43-28.91.94-17.64-13.09-32.24-30.53-32.24-8.13,0-15.5,3.18-20.97,8.35-9.97,9.44-23.31,14.51-37.04,14.51h0c-13.74,0-27.07-5.09-37.06-14.53-5.88-5.56-13.95-8.8-22.79-8.28-14.77.87-27.03,12.55-28.56,27.26-.3,2.84-.2,5.6.24,8.25,1.46,8.83-.63,17.87-6.33,24.76l-.7.84c-5.81,7.02-14.45,11.34-23.56,11.08-8.96-.26-18.01,3.4-24.36,11-9.36,11.2-9.36,27.87,0,39.07,6.35,7.6,15.39,11.26,24.36,11,9.11-.26,17.75,4.06,23.56,11.08l.7.84c5.71,6.89,7.8,15.94,6.33,24.76-.44,2.65-.53,5.41-.24,8.25,1.54,14.72,13.79,26.4,28.56,27.26,8.84.52,16.92-2.73,22.79-8.28,9.99-9.44,23.32-14.53,37.06-14.53h0c13.74,0,27.07,5.07,37.04,14.51,5.47,5.18,12.84,8.35,20.97,8.35,17.44,0,31.47-14.6,30.53-32.24-.85-16.01-14.4-28.86-30.43-28.91ZM270.24,141.95c-11.43-1.35-21.87,3.09-28.79,10.77-8.54,9.48-20.94,14.57-33.7,14.57h-2.97c-12.49,0-24.3-5.21-33.16-14.01-5.53-5.49-13.16-8.88-21.58-8.85-16.03.05-29.58,12.9-30.43,28.91-.94,17.64,13.09,32.24,30.53,32.24,8.37,0,15.95-3.37,21.46-8.83,8.89-8.8,20.68-14.04,33.19-14.04h2.8c12.8,0,25.29,5.02,33.84,14.54,6.09,6.78,14.92,11.04,24.76,11.04,19.64,0,35.3-17,33.08-37.08-1.68-15.19-13.84-27.46-29.02-29.25ZM222.64,47.93c0,7.49,6.07,13.56,13.56,13.56s13.56-6.07,13.56-13.56-6.07-13.56-13.56-13.56-13.56,6.07-13.56,13.56ZM267.56,101.84c0,8.81,7.14,15.95,15.95,15.95s15.95-7.14,15.95-15.95-7.14-15.95-15.95-15.95-15.95,7.14-15.95,15.95ZM63.27,34.36c-7.49,0-13.56,6.07-13.56,13.56s6.07,13.56,13.56,13.56,13.56-6.07,13.56-13.56-6.07-13.56-13.56-13.56ZM15.95,85.89C7.14,85.89,0,93.03,0,101.84s7.14,15.95,15.95,15.95,15.95-7.14,15.95-15.95-7.14-15.95-15.95-15.95ZM76.83,302.07c0-7.49-6.07-13.56-13.56-13.56s-13.56,6.07-13.56,13.56,6.07,13.56,13.56,13.56,13.56-6.07,13.56-13.56ZM31.91,248.16c0-8.81-7.14-15.95-15.95-15.95S0,239.35,0,248.16s7.14,15.95,15.95,15.95,15.95-7.14,15.95-15.95ZM236.2,315.64c7.49,0,13.56-6.07,13.56-13.56s-6.07-13.56-13.56-13.56-13.56,6.07-13.56,13.56,6.07,13.56,13.56,13.56ZM283.52,264.11c8.81,0,15.95-7.14,15.95-15.95s-7.14-15.95-15.95-15.95-15.95,7.14-15.95,15.95,7.14,15.95,15.95,15.95Z"/>
  <g>
    <path class="cls-2" d="M433.17,264.34c-6.05,0-11.57-1.51-16.58-4.53-5.01-3.02-9.03-7.04-12.05-12.05-3.02-5.01-4.53-10.54-4.53-16.58v-105.48c0-6.04,1.51-11.57,4.53-16.58,3.02-5.01,7.04-9.03,12.05-12.05,5.01-3.02,10.54-4.53,16.58-4.53h138.17v31.74h-131.49c-2.55,0-4.58.72-6.09,2.15-1.51,1.43-2.27,3.5-2.27,6.2v91.63c0,2.55.75,4.58,2.27,6.09,1.51,1.51,3.54,2.27,6.09,2.27h131.49v31.74h-138.17Z"/>
    <path class="cls-2" d="M611.54,259.81c-5.01-3.02-9.03-7.04-12.05-12.05-3.02-5.01-4.53-10.46-4.53-16.35v-72.54c0-6.04,1.51-11.53,4.53-16.47,3.02-4.93,7.04-8.91,12.05-11.93,5.01-3.02,10.46-4.53,16.35-4.53h74.69c6.04,0,11.57,1.47,16.58,4.41,5.01,2.95,8.99,6.92,11.93,11.93,2.94,5.01,4.41,10.54,4.41,16.58v72.54c0,5.89-1.47,11.33-4.41,16.35-2.95,5.01-6.88,9.03-11.81,12.05-4.93,3.02-10.5,4.53-16.7,4.53h-74.69c-5.89,0-11.33-1.51-16.35-4.53ZM629.08,233.08h72.31c.79,0,1.47-.28,2.03-.84s.84-1.23.84-2.03v-70.16c0-.79-.28-1.47-.84-2.03-.56-.56-1.23-.84-2.03-.84h-72.31c-.8,0-1.47.28-2.03.84s-.84,1.23-.84,2.03v70.16c0,.8.28,1.47.84,2.03.56.56,1.23.84,2.03.84Z"/>
    <path class="cls-2" d="M754.84,264.34V125.93h107.62c6.04,0,11.57,1.51,16.58,4.53,5.01,3.02,8.99,7,11.93,11.93,2.94,4.93,4.41,10.42,4.41,16.47v105.48h-31.26v-104.28c0-.79-.28-1.47-.84-2.03-.56-.56-1.23-.84-2.03-.84h-72.31c-.8,0-1.47.28-2.03.84s-.84,1.23-.84,2.03v104.28h-31.26Z"/>
    <path class="cls-2" d="M932.74,259.81c-5.01-3.02-9.03-7.04-12.05-12.05-3.02-5.01-4.53-10.46-4.53-16.35v-5.25h31.26v4.06c0,.8.28,1.47.84,2.03.56.56,1.23.84,2.03.84h72.3c.79,0,1.47-.28,2.03-.84s.84-1.23.84-2.03v-16.47c0-.79-.28-1.47-.84-2.03-.56-.56-1.23-.84-2.03-.84h-73.5c-5.89,0-11.33-1.51-16.35-4.53-5.01-3.02-9.03-7.04-12.05-12.05-3.02-5.01-4.53-10.46-4.53-16.35v-19.09c0-6.04,1.51-11.53,4.53-16.47,3.02-4.93,7.04-8.91,12.05-11.93,5.01-3.02,10.46-4.53,16.35-4.53h74.69c6.2,0,11.77,1.51,16.7,4.53,4.93,3.02,8.91,7,11.93,11.93,3.02,4.93,4.53,10.42,4.53,16.47v5.25h-31.5v-4.06c0-.79-.28-1.47-.84-2.03-.56-.56-1.23-.84-2.03-.84h-72.3c-.8,0-1.47.28-2.03.84s-.84,1.23-.84,2.03v16.47c0,.8.28,1.47.84,2.03.56.56,1.23.84,2.03.84h73.5c6.2,0,11.77,1.51,16.7,4.53,4.93,3.02,8.91,7,11.93,11.93,3.02,4.93,4.53,10.42,4.53,16.47v19.09c0,5.89-1.51,11.33-4.53,16.35-3.02,5.01-7,9.03-11.93,12.05-4.93,3.02-10.5,4.53-16.7,4.53h-74.69c-5.89,0-11.33-1.51-16.35-4.53Z"/>
    <path class="cls-2" d="M1093.82,259.81c-5.01-3.02-9.03-7.04-12.05-12.05-3.02-5.01-4.53-10.46-4.53-16.35v-72.54c0-6.04,1.51-11.53,4.53-16.47,3.02-4.93,7.04-8.91,12.05-11.93,5.01-3.02,10.46-4.53,16.35-4.53h74.69c6.04,0,11.57,1.47,16.58,4.41,5.01,2.95,8.99,6.92,11.93,11.93,2.94,5.01,4.41,10.54,4.41,16.58v72.54c0,5.89-1.47,11.33-4.41,16.35-2.95,5.01-6.88,9.03-11.81,12.05-4.93,3.02-10.5,4.53-16.7,4.53h-74.69c-5.89,0-11.33-1.51-16.35-4.53ZM1111.36,233.08h72.31c.79,0,1.47-.28,2.03-.84s.84-1.23.84-2.03v-70.16c0-.79-.28-1.47-.84-2.03-.56-.56-1.23-.84-2.03-.84h-72.31c-.8,0-1.47.28-2.03.84s-.84,1.23-.84,2.03v70.16c0,.8.28,1.47.84,2.03.56.56,1.23.84,2.03.84Z"/>
    <path class="cls-2" d="M1253.22,259.81c-5.01-3.02-9.03-7.04-12.05-12.05-3.02-5.01-4.53-10.46-4.53-16.35V80.35h31.5v149.86c0,.8.28,1.47.84,2.03.56.56,1.23.84,2.03.84h26.49v31.26h-27.92c-5.89,0-11.33-1.51-16.35-4.53Z"/>
    <path class="cls-2" d="M1319.44,112.09v-31.5h31.26v31.5h-31.26ZM1319.44,264.34V125.93h31.26v138.41h-31.26Z"/>
    <path class="cls-2" d="M1385.18,259.81c-5.01-3.02-8.99-7-11.93-11.93-2.95-4.93-4.41-10.42-4.41-16.47v-72.54c0-6.04,1.47-11.53,4.41-16.47,2.94-4.93,6.88-8.91,11.81-11.93,4.93-3.02,10.5-4.53,16.7-4.53h76.6v-45.34h31.26v183.75h-107.86c-6.05,0-11.57-1.51-16.58-4.53ZM1403.19,233.08h72.31c.79,0,1.47-.28,2.03-.84s.84-1.23.84-2.03v-70.16c0-.79-.28-1.47-.84-2.03-.56-.56-1.23-.84-2.03-.84h-72.31c-.8,0-1.47.28-2.03.84s-.84,1.23-.84,2.03v70.16c0,.8.28,1.47.84,2.03.56.56,1.23.84,2.03.84Z"/>
    <path class="cls-2" d="M1567.85,264.34c-6.05,0-11.57-1.51-16.58-4.53-5.01-3.02-8.99-7.04-11.93-12.05-2.95-5.01-4.41-10.46-4.41-16.35v-52.02h109.29v-19.33c0-.79-.28-1.47-.84-2.03-.56-.56-1.23-.84-2.03-.84h-106.43v-31.26h107.62c6.04,0,11.57,1.47,16.58,4.41,5.01,2.95,8.99,6.92,11.93,11.93,2.94,5.01,4.41,10.54,4.41,16.58v105.48h-107.62ZM1569.04,233.08h75.17v-25.53h-78.03v22.67c0,.8.28,1.47.84,2.03.56.56,1.23.84,2.03.84Z"/>
    <path class="cls-2" d="M1733.45,264.34c-6.05,0-11.57-1.51-16.58-4.53-5.01-3.02-8.99-7.04-11.93-12.05-2.95-5.01-4.41-10.46-4.41-16.35v-52.02h109.29v-19.33c0-.79-.28-1.47-.84-2.03-.56-.56-1.23-.84-2.03-.84h-106.43v-31.26h107.62c6.04,0,11.57,1.47,16.58,4.41,5.01,2.95,8.99,6.92,11.93,11.93,2.94,5.01,4.41,10.54,4.41,16.58v105.48h-107.62ZM1734.65,233.08h75.17v-25.53h-78.03v22.67c0,.8.28,1.47.84,2.03.56.56,1.23.84,2.03.84Z"/>
    <path class="cls-2" d="M1875.55,259.81c-5.01-3.02-8.99-7-11.93-11.93-2.95-4.93-4.41-10.42-4.41-16.47v-72.54c0-6.04,1.47-11.53,4.41-16.47,2.94-4.93,6.88-8.91,11.81-11.93,4.93-3.02,10.5-4.53,16.7-4.53h76.6v-45.34h31.26v183.75h-107.86c-6.05,0-11.57-1.51-16.58-4.53ZM1893.57,233.08h72.31c.79,0,1.47-.28,2.03-.84s.84-1.23.84-2.03v-70.16c0-.79-.28-1.47-.84-2.03-.56-.56-1.23-.84-2.03-.84h-72.31c-.8,0-1.47.28-2.03.84s-.84,1.23-.84,2.03v70.16c0,.8.28,1.47.84,2.03.56.56,1.23.84,2.03.84Z"/>
  </g>
</svg>